<?xml version="1.0" encoding="UTF-8"?>
<svg width="800px" height="600px" viewBox="0 0 800 600" version="1.1" xmlns="http://www.w3.org/2000/svg" xmlns:xlink="http://www.w3.org/1999/xlink">
    <title>Design Tokens</title>
    <defs>
        <linearGradient x1="50%" y1="0%" x2="50%" y2="100%" id="linearGradient-1">
            <stop stop-color="#0EA5E9" offset="0%"></stop>
            <stop stop-color="#0284C7" offset="100%"></stop>
        </linearGradient>
    </defs>
    <g stroke="none" stroke-width="1" fill="none" fill-rule="evenodd">
        <rect fill="#0F172A" x="0" y="0" width="800" height="600"></rect>
        <g transform="translate(150.000000, 150.000000)">
            <circle fill="#0EA5E9" opacity="0.2" cx="250" cy="150" r="150"></circle>
            <circle fill="#0284C7" opacity="0.4" cx="250" cy="150" r="120"></circle>
            <circle fill="#0369A1" opacity="0.6" cx="250" cy="150" r="90"></circle>
            <circle fill="#0C4A6E" opacity="0.8" cx="250" cy="150" r="60"></circle>
            <circle fill="url(#linearGradient-1)" cx="250" cy="150" r="30"></circle>
            <rect fill="#0EA5E9" x="350" y="50" width="100" height="30" rx="4"></rect>
            <rect fill="#0EA5E9" opacity="0.8" x="350" y="100" width="100" height="30" rx="4"></rect>
            <rect fill="#0EA5E9" opacity="0.6" x="350" y="150" width="100" height="30" rx="4"></rect>
            <rect fill="#0EA5E9" opacity="0.4" x="350" y="200" width="100" height="30" rx="4"></rect>
            <rect fill="#0EA5E9" opacity="0.2" x="350" y="250" width="100" height="30" rx="4"></rect>
            <rect fill="#0EA5E9" x="50" y="50" width="100" height="30" rx="4"></rect>
            <rect fill="#0EA5E9" opacity="0.8" x="50" y="100" width="100" height="30" rx="4"></rect>
            <rect fill="#0EA5E9" opacity="0.6" x="50" y="150" width="100" height="30" rx="4"></rect>
            <rect fill="#0EA5E9" opacity="0.4" x="50" y="200" width="100" height="30" rx="4"></rect>
            <rect fill="#0EA5E9" opacity="0.2" x="50" y="250" width="100" height="30" rx="4"></rect>
        </g>
    </g>
</svg>
