<?xml version="1.0" encoding="UTF-8"?>
<svg width="800px" height="600px" viewBox="0 0 800 600" version="1.1" xmlns="http://www.w3.org/2000/svg" xmlns:xlink="http://www.w3.org/1999/xlink">
    <title>Design System Website</title>
    <defs>
        <linearGradient x1="50%" y1="0%" x2="50%" y2="100%" id="linearGradient-1">
            <stop stop-color="#3B82F6" offset="0%"></stop>
            <stop stop-color="#1D4ED8" offset="100%"></stop>
        </linearGradient>
    </defs>
    <g stroke="none" stroke-width="1" fill="none" fill-rule="evenodd">
        <rect fill="#0F172A" x="0" y="0" width="800" height="600"></rect>
        <g transform="translate(100.000000, 100.000000)">
            <rect fill="#3B82F6" opacity="0.1" x="0" y="0" width="600" height="400" rx="12"></rect>
            <rect fill="#3B82F6" opacity="0.2" x="50" y="50" width="500" height="50" rx="8"></rect>
            <rect fill="url(#linearGradient-1)" x="450" y="65" width="80" height="20" rx="4"></rect>
            <rect fill="#3B82F6" opacity="0.2" x="50" y="120" width="240" height="240" rx="8"></rect>
            <rect fill="#3B82F6" opacity="0.2" x="310" y="120" width="240" height="240" rx="8"></rect>
            <rect fill="url(#linearGradient-1)" x="70" y="140" width="200" height="30" rx="4"></rect>
            <rect fill="#3B82F6" opacity="0.4" x="70" y="180" width="200" height="10" rx="2"></rect>
            <rect fill="#3B82F6" opacity="0.4" x="70" y="200" width="200" height="10" rx="2"></rect>
            <rect fill="#3B82F6" opacity="0.4" x="70" y="220" width="200" height="10" rx="2"></rect>
            <rect fill="#3B82F6" opacity="0.4" x="70" y="240" width="200" height="10" rx="2"></rect>
            <rect fill="#3B82F6" opacity="0.4" x="70" y="260" width="200" height="10" rx="2"></rect>
            <rect fill="url(#linearGradient-1)" x="70" y="290" width="80" height="30" rx="4"></rect>
            <rect fill="url(#linearGradient-1)" x="330" y="140" width="200" height="30" rx="4"></rect>
            <rect fill="#3B82F6" opacity="0.4" x="330" y="180" width="200" height="10" rx="2"></rect>
            <rect fill="#3B82F6" opacity="0.4" x="330" y="200" width="200" height="10" rx="2"></rect>
            <rect fill="#3B82F6" opacity="0.4" x="330" y="220" width="200" height="10" rx="2"></rect>
            <rect fill="#3B82F6" opacity="0.4" x="330" y="240" width="200" height="10" rx="2"></rect>
            <rect fill="#3B82F6" opacity="0.4" x="330" y="260" width="200" height="10" rx="2"></rect>
            <rect fill="url(#linearGradient-1)" x="330" y="290" width="80" height="30" rx="4"></rect>
        </g>
    </g>
</svg>
