<?xml version="1.0" encoding="UTF-8"?>
<svg width="800px" height="600px" viewBox="0 0 800 600" version="1.1" xmlns="http://www.w3.org/2000/svg" xmlns:xlink="http://www.w3.org/1999/xlink">
    <title>Documentation</title>
    <defs>
        <linearGradient x1="50%" y1="0%" x2="50%" y2="100%" id="linearGradient-1">
            <stop stop-color="#EC4899" offset="0%"></stop>
            <stop stop-color="#DB2777" offset="100%"></stop>
        </linearGradient>
    </defs>
    <g stroke="none" stroke-width="1" fill="none" fill-rule="evenodd">
        <rect fill="#0F172A" x="0" y="0" width="800" height="600"></rect>
        <g transform="translate(150.000000, 100.000000)">
            <rect fill="#EC4899" opacity="0.1" x="0" y="0" width="500" height="400" rx="12"></rect>
            <rect fill="#EC4899" opacity="0.2" x="50" y="50" width="400" height="300" rx="8"></rect>
            <rect fill="url(#linearGradient-1)" x="100" y="100" width="300" height="40" rx="4"></rect>
            <rect fill="#EC4899" opacity="0.4" x="100" y="160" width="300" height="10" rx="2"></rect>
            <rect fill="#EC4899" opacity="0.4" x="100" y="180" width="300" height="10" rx="2"></rect>
            <rect fill="#EC4899" opacity="0.4" x="100" y="200" width="300" height="10" rx="2"></rect>
            <rect fill="#EC4899" opacity="0.4" x="100" y="220" width="300" height="10" rx="2"></rect>
            <rect fill="#EC4899" opacity="0.4" x="100" y="240" width="300" height="10" rx="2"></rect>
            <rect fill="#EC4899" opacity="0.4" x="100" y="260" width="200" height="10" rx="2"></rect>
            <rect fill="#EC4899" opacity="0.6" x="100" y="290" width="100" height="30" rx="4"></rect>
        </g>
    </g>
</svg>
