<?xml version="1.0" encoding="UTF-8"?>
<svg width="800px" height="600px" viewBox="0 0 800 600" version="1.1" xmlns="http://www.w3.org/2000/svg" xmlns:xlink="http://www.w3.org/1999/xlink">
    <title>Framework Export</title>
    <defs>
        <linearGradient x1="50%" y1="0%" x2="50%" y2="100%" id="linearGradient-1">
            <stop stop-color="#10B981" offset="0%"></stop>
            <stop stop-color="#059669" offset="100%"></stop>
        </linearGradient>
    </defs>
    <g stroke="none" stroke-width="1" fill="none" fill-rule="evenodd">
        <rect fill="#0F172A" x="0" y="0" width="800" height="600"></rect>
        <g transform="translate(100.000000, 100.000000)">
            <rect fill="#10B981" opacity="0.1" x="0" y="0" width="600" height="400" rx="12"></rect>
            <rect fill="#10B981" opacity="0.2" x="50" y="50" width="150" height="300" rx="8"></rect>
            <rect fill="#10B981" opacity="0.2" x="225" y="50" width="150" height="300" rx="8"></rect>
            <rect fill="#10B981" opacity="0.2" x="400" y="50" width="150" height="300" rx="8"></rect>
            <circle fill="url(#linearGradient-1)" cx="125" cy="125" r="30"></circle>
            <circle fill="url(#linearGradient-1)" cx="300" cy="125" r="30"></circle>
            <circle fill="url(#linearGradient-1)" cx="475" cy="125" r="30"></circle>
            <rect fill="#10B981" opacity="0.4" x="95" y="175" width="60" height="10" rx="2"></rect>
            <rect fill="#10B981" opacity="0.4" x="95" y="195" width="60" height="10" rx="2"></rect>
            <rect fill="#10B981" opacity="0.4" x="95" y="215" width="60" height="10" rx="2"></rect>
            <rect fill="#10B981" opacity="0.4" x="270" y="175" width="60" height="10" rx="2"></rect>
            <rect fill="#10B981" opacity="0.4" x="270" y="195" width="60" height="10" rx="2"></rect>
            <rect fill="#10B981" opacity="0.4" x="270" y="215" width="60" height="10" rx="2"></rect>
            <rect fill="#10B981" opacity="0.4" x="445" y="175" width="60" height="10" rx="2"></rect>
            <rect fill="#10B981" opacity="0.4" x="445" y="195" width="60" height="10" rx="2"></rect>
            <rect fill="#10B981" opacity="0.4" x="445" y="215" width="60" height="10" rx="2"></rect>
            <rect fill="#10B981" opacity="0.6" x="95" y="250" width="60" height="20" rx="4"></rect>
            <rect fill="#10B981" opacity="0.6" x="270" y="250" width="60" height="20" rx="4"></rect>
            <rect fill="#10B981" opacity="0.6" x="445" y="250" width="60" height="20" rx="4"></rect>
        </g>
    </g>
</svg>
