<?xml version="1.0" encoding="UTF-8"?>
<svg width="800px" height="600px" viewBox="0 0 800 600" version="1.1" xmlns="http://www.w3.org/2000/svg" xmlns:xlink="http://www.w3.org/1999/xlink">
    <title>Pricing Page</title>
    <defs>
        <linearGradient x1="50%" y1="0%" x2="50%" y2="100%" id="linearGradient-1">
            <stop stop-color="#A855F7" offset="0%"></stop>
            <stop stop-color="#9333EA" offset="100%"></stop>
        </linearGradient>
    </defs>
    <g stroke="none" stroke-width="1" fill="none" fill-rule="evenodd">
        <rect fill="#0F172A" x="0" y="0" width="800" height="600"></rect>
        <g transform="translate(100.000000, 100.000000)">
            <rect fill="#A855F7" opacity="0.1" x="0" y="0" width="600" height="400" rx="12"></rect>
            <rect fill="#A855F7" opacity="0.2" x="50" y="50" width="150" height="300" rx="8"></rect>
            <rect fill="#A855F7" opacity="0.2" x="225" y="50" width="150" height="300" rx="8"></rect>
            <rect fill="#A855F7" opacity="0.2" x="400" y="50" width="150" height="300" rx="8"></rect>
            <rect fill="url(#linearGradient-1)" x="75" y="75" width="100" height="30" rx="4"></rect>
            <rect fill="url(#linearGradient-1)" x="250" y="75" width="100" height="30" rx="4"></rect>
            <rect fill="url(#linearGradient-1)" x="425" y="75" width="100" height="30" rx="4"></rect>
            <rect fill="#A855F7" opacity="0.4" x="75" y="125" width="100" height="10" rx="2"></rect>
            <rect fill="#A855F7" opacity="0.4" x="75" y="145" width="100" height="10" rx="2"></rect>
            <rect fill="#A855F7" opacity="0.4" x="75" y="165" width="100" height="10" rx="2"></rect>
            <rect fill="#A855F7" opacity="0.4" x="250" y="125" width="100" height="10" rx="2"></rect>
            <rect fill="#A855F7" opacity="0.4" x="250" y="145" width="100" height="10" rx="2"></rect>
            <rect fill="#A855F7" opacity="0.4" x="250" y="165" width="100" height="10" rx="2"></rect>
            <rect fill="#A855F7" opacity="0.4" x="425" y="125" width="100" height="10" rx="2"></rect>
            <rect fill="#A855F7" opacity="0.4" x="425" y="145" width="100" height="10" rx="2"></rect>
            <rect fill="#A855F7" opacity="0.4" x="425" y="165" width="100" height="10" rx="2"></rect>
            <rect fill="url(#linearGradient-1)" x="75" y="200" width="100" height="30" rx="4"></rect>
            <rect fill="url(#linearGradient-1)" x="250" y="200" width="100" height="30" rx="4"></rect>
            <rect fill="url(#linearGradient-1)" x="425" y="200" width="100" height="30" rx="4"></rect>
            <rect fill="#A855F7" opacity="0.4" x="75" y="250" width="100" height="10" rx="2"></rect>
            <rect fill="#A855F7" opacity="0.4" x="250" y="250" width="100" height="10" rx="2"></rect>
            <rect fill="#A855F7" opacity="0.4" x="425" y="250" width="100" height="10" rx="2"></rect>
            <rect fill="url(#linearGradient-1)" x="75" y="280" width="100" height="40" rx="4"></rect>
            <rect fill="url(#linearGradient-1)" x="250" y="280" width="100" height="40" rx="4"></rect>
            <rect fill="url(#linearGradient-1)" x="425" y="280" width="100" height="40" rx="4"></rect>
        </g>
    </g>
</svg>
