<svg width="500" height="500" viewBox="0 0 500 500" fill="none" xmlns="http://www.w3.org/2000/svg">
  <rect width="500" height="500" fill="none"/>
  
  <!-- Sky Background -->
  <rect x="0" y="0" width="500" height="300" fill="url(#sky_gradient)"/>
  
  <!-- Stars -->
  <circle cx="50" cy="50" r="1" fill="white"/>
  <circle cx="100" cy="30" r="1" fill="white"/>
  <circle cx="150" cy="70" r="1" fill="white"/>
  <circle cx="200" cy="40" r="1" fill="white"/>
  <circle cx="250" cy="60" r="1" fill="white"/>
  <circle cx="300" cy="20" r="1" fill="white"/>
  <circle cx="350" cy="80" r="1" fill="white"/>
  <circle cx="400" cy="50" r="1" fill="white"/>
  <circle cx="450" cy="30" r="1" fill="white"/>
  <circle cx="75" cy="90" r="1" fill="white"/>
  <circle cx="125" cy="10" r="1" fill="white"/>
  <circle cx="175" cy="100" r="1" fill="white"/>
  <circle cx="225" cy="20" r="1" fill="white"/>
  <circle cx="275" cy="110" r="1" fill="white"/>
  <circle cx="325" cy="40" r="1" fill="white"/>
  <circle cx="375" cy="120" r="1" fill="white"/>
  <circle cx="425" cy="70" r="1" fill="white"/>
  <circle cx="475" cy="90" r="1" fill="white"/>
  
  <!-- Moon -->
  <circle cx="400" cy="100" r="30" fill="url(#moon_gradient)"/>
  <circle cx="385" cy="85" r="8" fill="#1A237E" fill-opacity="0.3"/>
  <circle cx="410" cy="110" r="5" fill="#1A237E" fill-opacity="0.3"/>
  <circle cx="395" cy="115" r="7" fill="#1A237E" fill-opacity="0.3"/>
  
  <!-- City Skyline -->
  <!-- Building 1 -->
  <rect x="50" y="200" width="40" height="100" fill="#1A237E"/>
  <rect x="55" y="210" width="10" height="15" fill="#3F51B5" fill-opacity="0.7"/>
  <rect x="75" y="210" width="10" height="15" fill="#3F51B5" fill-opacity="0.7"/>
  <rect x="55" y="235" width="10" height="15" fill="#3F51B5" fill-opacity="0.7"/>
  <rect x="75" y="235" width="10" height="15" fill="#3F51B5" fill-opacity="0.7"/>
  <rect x="55" y="260" width="10" height="15" fill="#3F51B5" fill-opacity="0.7"/>
  <rect x="75" y="260" width="10" height="15" fill="#3F51B5" fill-opacity="0.7"/>
  
  <!-- Building 2 -->
  <rect x="100" y="150" width="60" height="150" fill="#0D47A1"/>
  <rect x="110" y="160" width="10" height="15" fill="#3F51B5" fill-opacity="0.7"/>
  <rect x="130" y="160" width="10" height="15" fill="#3F51B5" fill-opacity="0.7"/>
  <rect x="110" y="185" width="10" height="15" fill="#3F51B5" fill-opacity="0.7"/>
  <rect x="130" y="185" width="10" height="15" fill="#3F51B5" fill-opacity="0.7"/>
  <rect x="110" y="210" width="10" height="15" fill="#3F51B5" fill-opacity="0.7"/>
  <rect x="130" y="210" width="10" height="15" fill="#3F51B5" fill-opacity="0.7"/>
  <rect x="110" y="235" width="10" height="15" fill="#3F51B5" fill-opacity="0.7"/>
  <rect x="130" y="235" width="10" height="15" fill="#3F51B5" fill-opacity="0.7"/>
  <rect x="110" y="260" width="10" height="15" fill="#3F51B5" fill-opacity="0.7"/>
  <rect x="130" y="260" width="10" height="15" fill="#3F51B5" fill-opacity="0.7"/>
  
  <!-- Building 3 (Futuristic Tower) -->
  <path d="M200 100 L220 300 L240 300 L260 100 Z" fill="#1A237E"/>
  <rect x="210" y="120" width="40" height="5" fill="#3F51B5" fill-opacity="0.7"/>
  <rect x="210" y="135" width="40" height="5" fill="#3F51B5" fill-opacity="0.7"/>
  <rect x="210" y="150" width="40" height="5" fill="#3F51B5" fill-opacity="0.7"/>
  <rect x="210" y="165" width="40" height="5" fill="#3F51B5" fill-opacity="0.7"/>
  <rect x="210" y="180" width="40" height="5" fill="#3F51B5" fill-opacity="0.7"/>
  <rect x="210" y="195" width="40" height="5" fill="#3F51B5" fill-opacity="0.7"/>
  <rect x="210" y="210" width="40" height="5" fill="#3F51B5" fill-opacity="0.7"/>
  <rect x="210" y="225" width="40" height="5" fill="#3F51B5" fill-opacity="0.7"/>
  <rect x="210" y="240" width="40" height="5" fill="#3F51B5" fill-opacity="0.7"/>
  <rect x="210" y="255" width="40" height="5" fill="#3F51B5" fill-opacity="0.7"/>
  <rect x="210" y="270" width="40" height="5" fill="#3F51B5" fill-opacity="0.7"/>
  <rect x="210" y="285" width="40" height="5" fill="#3F51B5" fill-opacity="0.7"/>
  <circle cx="230" cy="100" r="10" fill="#3F51B5"/>
  
  <!-- Building 4 -->
  <rect x="280" y="180" width="50" height="120" fill="#0D47A1"/>
  <rect x="290" y="190" width="10" height="15" fill="#3F51B5" fill-opacity="0.7"/>
  <rect x="310" y="190" width="10" height="15" fill="#3F51B5" fill-opacity="0.7"/>
  <rect x="290" y="215" width="10" height="15" fill="#3F51B5" fill-opacity="0.7"/>
  <rect x="310" y="215" width="10" height="15" fill="#3F51B5" fill-opacity="0.7"/>
  <rect x="290" y="240" width="10" height="15" fill="#3F51B5" fill-opacity="0.7"/>
  <rect x="310" y="240" width="10" height="15" fill="#3F51B5" fill-opacity="0.7"/>
  <rect x="290" y="265" width="10" height="15" fill="#3F51B5" fill-opacity="0.7"/>
  <rect x="310" y="265" width="10" height="15" fill="#3F51B5" fill-opacity="0.7"/>
  
  <!-- Building 5 -->
  <rect x="350" y="220" width="30" height="80" fill="#1A237E"/>
  <rect x="355" y="230" width="8" height="10" fill="#3F51B5" fill-opacity="0.7"/>
  <rect x="367" y="230" width="8" height="10" fill="#3F51B5" fill-opacity="0.7"/>
  <rect x="355" y="250" width="8" height="10" fill="#3F51B5" fill-opacity="0.7"/>
  <rect x="367" y="250" width="8" height="10" fill="#3F51B5" fill-opacity="0.7"/>
  <rect x="355" y="270" width="8" height="10" fill="#3F51B5" fill-opacity="0.7"/>
  <rect x="367" y="270" width="8" height="10" fill="#3F51B5" fill-opacity="0.7"/>
  
  <!-- Building 6 -->
  <rect x="400" y="170" width="70" height="130" fill="#0D47A1"/>
  <rect x="410" y="180" width="12" height="15" fill="#3F51B5" fill-opacity="0.7"/>
  <rect x="432" y="180" width="12" height="15" fill="#3F51B5" fill-opacity="0.7"/>
  <rect x="410" y="205" width="12" height="15" fill="#3F51B5" fill-opacity="0.7"/>
  <rect x="432" y="205" width="12" height="15" fill="#3F51B5" fill-opacity="0.7"/>
  <rect x="410" y="230" width="12" height="15" fill="#3F51B5" fill-opacity="0.7"/>
  <rect x="432" y="230" width="12" height="15" fill="#3F51B5" fill-opacity="0.7"/>
  <rect x="410" y="255" width="12" height="15" fill="#3F51B5" fill-opacity="0.7"/>
  <rect x="432" y="255" width="12" height="15" fill="#3F51B5" fill-opacity="0.7"/>
  <rect x="410" y="280" width="12" height="15" fill="#3F51B5" fill-opacity="0.7"/>
  <rect x="432" y="280" width="12" height="15" fill="#3F51B5" fill-opacity="0.7"/>
  
  <!-- Ground -->
  <rect x="0" y="300" width="500" height="200" fill="url(#ground_gradient)"/>
  
  <!-- Grid Lines -->
  <line x1="0" y1="320" x2="500" y2="320" stroke="#3F51B5" stroke-width="1" stroke-opacity="0.5"/>
  <line x1="0" y1="340" x2="500" y2="340" stroke="#3F51B5" stroke-width="1" stroke-opacity="0.5"/>
  <line x1="0" y1="360" x2="500" y2="360" stroke="#3F51B5" stroke-width="1" stroke-opacity="0.5"/>
  <line x1="0" y1="380" x2="500" y2="380" stroke="#3F51B5" stroke-width="1" stroke-opacity="0.5"/>
  <line x1="0" y1="400" x2="500" y2="400" stroke="#3F51B5" stroke-width="1" stroke-opacity="0.5"/>
  <line x1="0" y1="420" x2="500" y2="420" stroke="#3F51B5" stroke-width="1" stroke-opacity="0.5"/>
  <line x1="0" y1="440" x2="500" y2="440" stroke="#3F51B5" stroke-width="1" stroke-opacity="0.5"/>
  <line x1="0" y1="460" x2="500" y2="460" stroke="#3F51B5" stroke-width="1" stroke-opacity="0.5"/>
  <line x1="0" y1="480" x2="500" y2="480" stroke="#3F51B5" stroke-width="1" stroke-opacity="0.5"/>
  
  <line x1="50" y1="300" x2="50" y2="500" stroke="#3F51B5" stroke-width="1" stroke-opacity="0.5"/>
  <line x1="100" y1="300" x2="100" y2="500" stroke="#3F51B5" stroke-width="1" stroke-opacity="0.5"/>
  <line x1="150" y1="300" x2="150" y2="500" stroke="#3F51B5" stroke-width="1" stroke-opacity="0.5"/>
  <line x1="200" y1="300" x2="200" y2="500" stroke="#3F51B5" stroke-width="1" stroke-opacity="0.5"/>
  <line x1="250" y1="300" x2="250" y2="500" stroke="#3F51B5" stroke-width="1" stroke-opacity="0.5"/>
  <line x1="300" y1="300" x2="300" y2="500" stroke="#3F51B5" stroke-width="1" stroke-opacity="0.5"/>
  <line x1="350" y1="300" x2="350" y2="500" stroke="#3F51B5" stroke-width="1" stroke-opacity="0.5"/>
  <line x1="400" y1="300" x2="400" y2="500" stroke="#3F51B5" stroke-width="1" stroke-opacity="0.5"/>
  <line x1="450" y1="300" x2="450" y2="500" stroke="#3F51B5" stroke-width="1" stroke-opacity="0.5"/>
  
  <!-- Gradients -->
  <defs>
    <linearGradient id="sky_gradient" x1="0" y1="0" x2="0" y2="300" gradientUnits="userSpaceOnUse">
      <stop stop-color="#000051"/>
      <stop offset="1" stop-color="#1A237E"/>
    </linearGradient>
    <radialGradient id="moon_gradient" cx="400" cy="100" r="30" gradientUnits="userSpaceOnUse">
      <stop stop-color="#E8EAF6"/>
      <stop offset="1" stop-color="#C5CAE9"/>
    </radialGradient>
    <linearGradient id="ground_gradient" x1="0" y1="300" x2="0" y2="500" gradientUnits="userSpaceOnUse">
      <stop stop-color="#1A237E"/>
      <stop offset="1" stop-color="#000051"/>
    </linearGradient>
  </defs>
</svg>
