<?xml version="1.0" encoding="UTF-8"?>
<svg width="800px" height="600px" viewBox="0 0 800 600" version="1.1" xmlns="http://www.w3.org/2000/svg" xmlns:xlink="http://www.w3.org/1999/xlink">
    <title>Version Control</title>
    <defs>
        <linearGradient x1="50%" y1="0%" x2="50%" y2="100%" id="linearGradient-1">
            <stop stop-color="#8B5CF6" offset="0%"></stop>
            <stop stop-color="#6D28D9" offset="100%"></stop>
        </linearGradient>
    </defs>
    <g stroke="none" stroke-width="1" fill="none" fill-rule="evenodd">
        <rect fill="#0F172A" x="0" y="0" width="800" height="600"></rect>
        <g transform="translate(150.000000, 100.000000)">
            <circle fill="#8B5CF6" opacity="0.2" cx="250" cy="200" r="20"></circle>
            <circle fill="#8B5CF6" opacity="0.2" cx="150" cy="100" r="20"></circle>
            <circle fill="#8B5CF6" opacity="0.2" cx="350" cy="100" r="20"></circle>
            <circle fill="#8B5CF6" opacity="0.2" cx="150" cy="300" r="20"></circle>
            <circle fill="#8B5CF6" opacity="0.2" cx="350" cy="300" r="20"></circle>
            <circle fill="url(#linearGradient-1)" cx="250" cy="200" r="15"></circle>
            <circle fill="url(#linearGradient-1)" cx="150" cy="100" r="15"></circle>
            <circle fill="url(#linearGradient-1)" cx="350" cy="100" r="15"></circle>
            <circle fill="url(#linearGradient-1)" cx="150" cy="300" r="15"></circle>
            <circle fill="url(#linearGradient-1)" cx="350" cy="300" r="15"></circle>
            <line x1="250" y1="200" x2="150" y2="100" stroke="#8B5CF6" stroke-width="3"></line>
            <line x1="250" y1="200" x2="350" y2="100" stroke="#8B5CF6" stroke-width="3"></line>
            <line x1="250" y1="200" x2="150" y2="300" stroke="#8B5CF6" stroke-width="3"></line>
            <line x1="250" y1="200" x2="350" y2="300" stroke="#8B5CF6" stroke-width="3"></line>
            <rect fill="#8B5CF6" opacity="0.2" x="400" y="50" width="100" height="300" rx="8"></rect>
            <rect fill="#8B5CF6" opacity="0.4" x="420" y="70" width="60" height="20" rx="4"></rect>
            <rect fill="#8B5CF6" opacity="0.4" x="420" y="110" width="60" height="20" rx="4"></rect>
            <rect fill="#8B5CF6" opacity="0.4" x="420" y="150" width="60" height="20" rx="4"></rect>
            <rect fill="#8B5CF6" opacity="0.4" x="420" y="190" width="60" height="20" rx="4"></rect>
            <rect fill="#8B5CF6" opacity="0.4" x="420" y="230" width="60" height="20" rx="4"></rect>
            <rect fill="#8B5CF6" opacity="0.4" x="420" y="270" width="60" height="20" rx="4"></rect>
            <rect fill="#8B5CF6" opacity="0.4" x="420" y="310" width="60" height="20" rx="4"></rect>
        </g>
    </g>
</svg>
