<?xml version="1.0" encoding="UTF-8"?>
<svg width="800px" height="600px" viewBox="0 0 800 600" version="1.1" xmlns="http://www.w3.org/2000/svg" xmlns:xlink="http://www.w3.org/1999/xlink">
    <title>Wobble Card Component</title>
    <defs>
        <linearGradient x1="50%" y1="0%" x2="50%" y2="100%" id="linearGradient-1">
            <stop stop-color="#EC4899" offset="0%"></stop>
            <stop stop-color="#DB2777" offset="100%"></stop>
        </linearGradient>
    </defs>
    <g stroke="none" stroke-width="1" fill="none" fill-rule="evenodd">
        <rect fill="#0F172A" x="0" y="0" width="800" height="600"></rect>
        <g transform="translate(150.000000, 150.000000)" opacity="0.9">
            <rect fill="#EC4899" opacity="0.1" x="0" y="0" width="500" height="300" rx="12"></rect>
            <rect fill="#EC4899" opacity="0.2" x="50" y="50" width="400" height="200" rx="8" transform="translate(250.000000, 150.000000) rotate(-5.000000) translate(-250.000000, -150.000000)"></rect>
            <rect fill="url(#linearGradient-1)" x="100" y="100" width="300" height="100" rx="4" transform="translate(250.000000, 150.000000) rotate(3.000000) translate(-250.000000, -150.000000)"></rect>
        </g>
        <g transform="translate(150.000000, 150.000000)" opacity="0.7">
            <rect fill="#EC4899" opacity="0.1" x="0" y="0" width="500" height="300" rx="12"></rect>
            <rect fill="#EC4899" opacity="0.2" x="50" y="50" width="400" height="200" rx="8" transform="translate(250.000000, 150.000000) rotate(5.000000) translate(-250.000000, -150.000000)"></rect>
            <rect fill="url(#linearGradient-1)" x="100" y="100" width="300" height="100" rx="4" transform="translate(250.000000, 150.000000) rotate(-3.000000) translate(-250.000000, -150.000000)"></rect>
        </g>
    </g>
</svg>
