<svg xmlns="http://www.w3.org/2000/svg" width="120" height="40" viewBox="0 0 120 40">
  <path d="M67.7 17.9c-.1-5.4 4.4-8.1 4.6-8.2-2.5-3.7-6.4-4.2-7.8-4.2-3.3-.3-6.5 2-8.1 2-1.7 0-4.3-1.9-7-1.9-3.6.1-6.9 2.1-8.8 5.4-3.7 6.5-1 16.1 2.7 21.4 1.8 2.6 3.9 5.5 6.7 5.4 2.7-.1 3.7-1.7 7-1.7 3.2 0 4.2 1.7 7 1.7 2.9 0 4.7-2.6 6.5-5.2 2-3 2.9-5.9 2.9-6-.1 0-5.5-2.1-5.7-8.4zm-5.3-15.4c1.5-1.8 2.5-4.3 2.2-6.8-2.1.1-4.7 1.4-6.3 3.2-1.4 1.6-2.6 4.1-2.3 6.5 2.4.2 4.8-1.1 6.4-2.9zm42.2 27.2h-4.7l-2.6-8.1h-9l-2.5 8.1h-4.5l8.9-27.8h5.4l9 27.8zm-8.2-11.5l-2.3-7.2c-.2-.7-.7-2.5-1.4-5.2h-.1c-.3 1-.7 2.7-1.3 5.2l-2.3 7.2h7.4zm31.9 11.5h-4.3l-.3-2.2h-.1c-1.1 1.7-2.9 2.6-5.2 2.6-1.6 0-2.9-.5-3.9-1.6-1-1-1.5-2.3-1.5-3.8 0-2.3.9-4 2.6-5.1 1.7-1.1 4.1-1.7 7.2-1.7v-.3c0-2.2-1.2-3.3-3.5-3.3-1.7 0-3.1.4-4.4 1.3l-1.4-2.8c1.8-1.1 4-1.7 6.6-1.7 5 0 7.5 2.7 7.5 8v7.3c0 2 .1 3.3.3 4.3zm-4.7-6.3v-3c-4.1 0-6.1 1.3-6.1 3.8 0 1 .3 1.7.8 2.2.5.5 1.2.7 2 .7.9 0 1.7-.3 2.4-.9.7-.6 1-1.4 1-2.3l-.1-.5zm21.6-14.2h-5.1v10.1c0 2.6.9 3.9 2.7 3.9.8 0 1.5-.1 2-.2l.1 3.2c-.9.3-2 .5-3.4.5-1.7 0-3.1-.5-4.1-1.6-1-1.1-1.5-2.8-1.5-5.2v-10.7h-3v-3.2h3v-3.8l4.1-1.2v5h5.1v3.2h.1zm19.3 20.5h-4.1v-11.6c0-3.3-1.3-5-3.8-5-1.2 0-2.2.4-3 1.3-.8.9-1.2 1.9-1.2 3.2v12.1h-4.1v-14.5c0-1.6 0-3.1-.1-4.5h3.6l.2 2.4h.1c1.3-1.9 3.2-2.8 5.7-2.8 1.3 0 2.4.3 3.3 1 .9.7 1.6 1.6 2.1 2.7.5 1.1.7 2.4.7 3.8v11.9h-.4zm-45.8-27.8h-4.1v27.8h4.1V2.2z" fill="#999"/>
</svg>
