<svg xmlns="http://www.w3.org/2000/svg" width="200" height="40" viewBox="0 0 200 40">
  <path d="M158.2 18.7c-2.5 0-4.3 1.1-5.2 3.2h-.1v-2.7h-4.6v19.5h4.9V26.9c0-2.4 1.1-3.7 3.1-3.7 1.9 0 2.9 1.2 2.9 3.7v11.8h4.9V25.4c0-4.4-2.4-6.7-5.9-6.7zm-21.5 9.8c0-5.6 2.5-9.1 7.2-9.1 4.1 0 6.4 2.9 6.4 8.1v1.8h-8.8c.2 2.7 1.4 3.9 3.5 3.9 1.6 0 2.8-.7 3.2-1.9l4.4.6c-.8 3.3-3.7 5.3-7.7 5.3-5.5 0-8.2-3.7-8.2-8.7zm8.8-1.5c0-2.5-1-3.9-2.9-3.9-1.9 0-3 1.5-3.1 3.9h6zm-25.5-8.3h4.6v2.7h.1c.9-2 2.5-3.2 5-3.2 3.8 0 6 2.3 6 6.7v12.8h-4.9V26.9c0-2.4-1-3.7-2.9-3.7-2 0-3.1 1.3-3.1 3.7v11.8H120V18.7zm-6.7 19.5h4.9V18.7h-4.9v19.5zm0-22.3h4.9v-4.6h-4.9V16zm-18.3 11.1l4.3-.6c.3 1.9 1.5 2.9 3.3 2.9 1.4 0 2.3-.6 2.3-1.5 0-.8-.6-1.2-2.1-1.5l-2.5-.4c-3.8-.6-5.5-2.3-5.5-5.3 0-3.5 3-5.8 7.1-5.8 4.1 0 6.8 2.1 7.2 5.3l-4.2.6c-.3-1.5-1.4-2.3-3-2.3-1.3 0-2.2.6-2.2 1.4 0 .8.6 1.2 1.9 1.4l2.7.4c3.9.6 5.6 2.3 5.6 5.4 0 3.6-3.1 6-7.4 6-4.4 0-7.3-2.1-7.5-5.4zm-14.4 0l4.3-.6c.3 1.9 1.5 2.9 3.3 2.9 1.4 0 2.3-.6 2.3-1.5 0-.8-.6-1.2-2.1-1.5l-2.5-.4c-3.8-.6-5.5-2.3-5.5-5.3 0-3.5 3-5.8 7.1-5.8 4.1 0 6.8 2.1 7.2 5.3l-4.2.6c-.3-1.5-1.4-2.3-3-2.3-1.3 0-2.2.6-2.2 1.4 0 .8.6 1.2 1.9 1.4l2.7.4c3.9.6 5.6 2.3 5.6 5.4 0 3.6-3.1 6-7.4 6-4.4 0-7.3-2.1-7.5-5.4zm-16.3 5.7c-1.9 0-3.2-1.3-3.2-3.2 0-1.9 1.3-3.2 3.2-3.2 1.9 0 3.2 1.3 3.2 3.2 0 1.9-1.3 3.2-3.2 3.2zm-9.2 0c-1.9 0-3.2-1.3-3.2-3.2 0-1.9 1.3-3.2 3.2-3.2 1.9 0 3.2 1.3 3.2 3.2 0 1.9-1.3 3.2-3.2 3.2zm-9.2 0c-1.9 0-3.2-1.3-3.2-3.2 0-1.9 1.3-3.2 3.2-3.2 1.9 0 3.2 1.3 3.2 3.2 0 1.9-1.3 3.2-3.2 3.2z" fill="#0081FB"/>
  <path d="M28.8 1.1C13.8 1.1 1.7 13.2 1.7 28.2c0 15 12.1 27.1 27.1 27.1 15 0 27.1-12.1 27.1-27.1 0-15-12.1-27.1-27.1-27.1z" fill="url(#meta-gradient)"/>
  <defs>
    <linearGradient id="meta-gradient" x1="28.8" y1="1.1" x2="28.8" y2="55.3" gradientUnits="userSpaceOnUse">
      <stop offset="0" stop-color="#0064E1"/>
      <stop offset="0.4" stop-color="#0064E1"/>
      <stop offset="0.83" stop-color="#0073F0"/>
      <stop offset="1" stop-color="#0082FF"/>
    </linearGradient>
  </defs>
</svg>
