<svg xmlns="http://www.w3.org/2000/svg" width="108" height="24" viewBox="0 0 108 24">
  <path d="M44.836 4.6v13.8h-2.4V7.583H42.4L38.119 18.4h-1.588L32.142 7.583h-.029V18.4h-2.4V4.6h3.436L37.3 14.83h.058L41.545 4.6zm2.974 13.8V4.6h7.679v2.001h-5.14v3.686h4.74v2h-4.74v4.114h5.14v2zm11.989.32c-3.317 0-5.126-2.054-5.126-5.283 0-3.229 1.82-5.283 5.068-5.283 3.297 0 5.037 2.054 5.037 5.283 0 3.258-1.78 5.283-4.98 5.283zm-.059-1.78c1.859 0 2.657-1.408 2.657-3.504 0-2.095-.798-3.503-2.657-3.503-1.88 0-2.657 1.408-2.657 3.503 0 2.096.778 3.504 2.657 3.504zm14.583-8.467v10.048h-2.132v-.86h-.058c-.41.603-1.23.98-2.257.98-2.1 0-3.317-1.408-3.317-3.574V7.9h2.389v5.695c0 1.37.576 1.9 1.722 1.9 1.195 0 1.82-.861 1.82-2.39V7.9zm3.535 4.907V7.9h2.389v4.114c0 1.408.654 2.336 2.007 2.336 1.283 0 2.066-.928 2.066-2.336V7.9h2.389v10.048h-2.13v-.861h-.059c-.48.603-1.176 1.041-2.361 1.041-2.48 0-3.76-1.466-3.76-3.721v-1.6zm14.243.432V7.9h2.389v1.378h.059c.48-.98 1.234-1.547 2.418-1.547.129 0 .25.01.41.03v2.336a2.96 2.96 0 0 0-.781-.1c-1.283 0-2.066.506-2.066 1.97v6.565h-2.389zm7.75 2.336c0-1.42 1.156-2.219 3.106-2.336l2.389-.137v-.643c0-.86-.654-1.35-1.722-1.35-1.018 0-1.678.432-1.819 1.063h-2.271c.13-1.66 1.54-3.045 4.09-3.045 2.52 0 4.07 1.31 4.07 3.368v6.877h-2.13v-.744h-.06c-.538.576-1.264.863-2.36.863-1.937 0-3.297-1.155-3.297-2.953l.004.037zm5.494-1.044v-.576l-2.183.137c-.991.07-1.43.432-1.43 1.101 0 .686.595 1.094 1.509 1.094 1.234 0 2.105-.792 2.105-1.756z" fill="#706D6E"/>
  <path d="M11.5 4h-11v11h11V4z" fill="#F25022"/>
  <path d="M24 4H13v11h11V4z" fill="#7FBA00"/>
  <path d="M11.5 16.5h-11v11h11v-11z" fill="#00A4EF"/>
  <path d="M24 16.5H13v11h11v-11z" fill="#FFB900"/>
</svg>
