<svg xmlns="http://www.w3.org/2000/svg" width="120" height="40" viewBox="0 0 120 40">
  <path d="M47.363 23.55l1.475-3.436 1.523 3.436h-2.998zm8.125 5.638l-5.175-11.9c-.222-.518-.123-1.112.259-1.531.382-.419.975-.592 1.53-.444l12.025 3.188c.555.148.975.592 1.086 1.161.111.568-.111 1.136-.555 1.482l-7.777 8.044h-1.393zm-14.226 0l-5.175-11.9c-.222-.518-.123-1.112.259-1.531.382-.419.975-.592 1.53-.444l12.025 3.188c.555.148.975.592 1.086 1.161.111.568-.111 1.136-.555 1.482l-7.777 8.044h-1.393zm36.565-5.638l1.475-3.436 1.523 3.436h-2.998zm8.125 5.638l-5.175-11.9c-.222-.518-.123-1.112.259-1.531.382-.419.975-.592 1.53-.444l12.025 3.188c.555.148.975.592 1.086 1.161.111.568-.111 1.136-.555 1.482l-7.777 8.044h-1.393zm-14.226 0l-5.175-11.9c-.222-.518-.123-1.112.259-1.531.382-.419.975-.592 1.53-.444l12.025 3.188c.555.148.975.592 1.086 1.161.111.568-.111 1.136-.555 1.482l-7.777 8.044h-1.393z" fill="#E01E5A"/>
  <path d="M31.363 23.55l1.475-3.436 1.523 3.436h-2.998zm8.125 5.638l-5.175-11.9c-.222-.518-.123-1.112.259-1.531.382-.419.975-.592 1.53-.444l12.025 3.188c.555.148.975.592 1.086 1.161.111.568-.111 1.136-.555 1.482l-7.777 8.044h-1.393zm-14.226 0l-5.175-11.9c-.222-.518-.123-1.112.259-1.531.382-.419.975-.592 1.53-.444l12.025 3.188c.555.148.975.592 1.086 1.161.111.568-.111 1.136-.555 1.482l-7.777 8.044h-1.393z" fill="#36C5F0"/>
  <path d="M63.363 23.55l1.475-3.436 1.523 3.436h-2.998zm8.125 5.638l-5.175-11.9c-.222-.518-.123-1.112.259-1.531.382-.419.975-.592 1.53-.444l12.025 3.188c.555.148.975.592 1.086 1.161.111.568-.111 1.136-.555 1.482l-7.777 8.044h-1.393zm-14.226 0l-5.175-11.9c-.222-.518-.123-1.112.259-1.531.382-.419.975-.592 1.53-.444l12.025 3.188c.555.148.975.592 1.086 1.161.111.568-.111 1.136-.555 1.482l-7.777 8.044h-1.393z" fill="#2EB67D"/>
  <path d="M79.363 23.55l1.475-3.436 1.523 3.436h-2.998zm8.125 5.638l-5.175-11.9c-.222-.518-.123-1.112.259-1.531.382-.419.975-.592 1.53-.444l12.025 3.188c.555.148.975.592 1.086 1.161.111.568-.111 1.136-.555 1.482l-7.777 8.044h-1.393zm-14.226 0l-5.175-11.9c-.222-.518-.123-1.112.259-1.531.382-.419.975-.592 1.53-.444l12.025 3.188c.555.148.975.592 1.086 1.161.111.568-.111 1.136-.555 1.482l-7.777 8.044h-1.393z" fill="#ECB22E"/>
</svg>
