<svg xmlns="http://www.w3.org/2000/svg" width="120" height="40" viewBox="0 0 120 40">
  <path d="M60 20c-11.046 0-20 8.954-20 20s8.954 20 20 20 20-8.954 20-20-8.954-20-20-20zm9.167 28.841c-.359.583-1.127.764-1.714.406-4.692-2.868-10.593-3.517-17.541-1.927-.673.154-1.342-.264-1.496-.936-.154-.673.264-1.342.936-1.496 7.588-1.733 14.082-.997 19.309 2.239.587.358.768 1.127.406 1.714zm2.447-5.447c-.451.733-1.409.959-2.142.508-5.368-3.298-13.553-4.253-19.895-2.326-.823.249-1.695-.211-1.944-1.034-.249-.823.211-1.695 1.034-1.944 7.249-2.199 16.27-1.134 22.439 2.654.733.451.959 1.409.508 2.142zm.211-5.668c-6.436-3.82-17.065-4.172-23.215-2.309-.986.299-2.03-.254-2.329-1.24-.299-.986.254-2.03 1.24-2.329 7.056-2.141 18.777-1.729 26.198 2.672.891.53 1.184 1.682.654 2.573-.53.891-1.682 1.184-2.573.654l.025-.021z" fill="#1DB954"/>
</svg>
