<svg xmlns="http://www.w3.org/2000/svg" width="1024" height="1024" viewBox="0 0 1024 1024" version="1.1">
	<path d="M 38 442.565 L 38 525.130 82.750 524.735 C 124.269 524.368, 128.022 524.191, 134.724 522.276 C 176.427 510.365, 201.083 470.969, 193.607 428.192 C 188.224 397.393, 168.444 374.041, 139.986 364.890 C 127.712 360.943, 115.193 360.035, 72.750 360.016 L 38 360 38 442.565 M 214 442.500 L 214 525 231.250 525 L 248.500 525 248.500 495.750 L 248.500 466.500 268.920 466.500 L 289.341 466.500 299.667 483.500 C 305.346 492.850, 313.389 506.012, 317.540 512.750 L 325.087 525 343.544 525 C 353.695 525, 362 524.640, 362 524.200 C 362 523.760, 361.585 522.972, 361.078 522.450 C 360.571 521.927, 353.147 509.449, 344.581 494.720 C 336.015 479.991, 328.329 466.906, 327.501 465.641 C 326.020 463.381, 326.125 463.276, 333.747 459.426 C 343.226 454.638, 353.457 444.876, 357.293 436.962 C 369.870 411.007, 361.010 381.064, 337.081 368.658 C 321.938 360.807, 315.031 360.060, 257.250 360.026 L 214 360 214 442.500 M 380.922 360.750 C 380.880 361.163, 380.767 398.287, 380.672 443.250 L 380.500 525 442.250 525 L 504 525 504 509.500 L 504 494 460 494 L 416 494 416 475.511 L 416 457.023 456.063 456.761 L 496.126 456.500 496.243 442 L 496.360 427.500 456.180 427.239 L 416 426.977 416 408.739 L 416 390.500 459 390.614 L 502 390.727 502 375.364 L 502 360 441.500 360 C 408.225 360, 380.965 360.337, 380.922 360.750 M 513.473 361.750 C 514.859 365.283, 537.284 433.802, 558.720 500 L 566.653 524.500 582.276 524.775 L 597.898 525.050 603.887 506.275 C 607.181 495.949, 615.105 470.861, 621.497 450.524 C 627.889 430.188, 633.306 413.361, 633.536 413.131 C 634.074 412.592, 633.267 410.135, 658.142 488 C 660.338 494.875, 663.946 506.024, 666.159 512.776 L 670.183 525.051 685.249 524.776 L 700.315 524.500 727.521 442.250 L 754.727 360 736.420 360 L 718.112 360 711.135 381.750 C 707.297 393.712, 700.726 414.525, 696.533 428 C 692.339 441.475, 687.957 455.420, 686.793 458.989 L 684.678 465.478 682.308 458.489 C 681.005 454.645, 673.822 431.700, 666.345 407.500 C 658.869 383.300, 652.336 362.702, 651.828 361.727 C 650.989 360.116, 649.304 359.979, 633.344 360.227 L 615.783 360.500 604.932 395.500 C 598.963 414.750, 591.707 438.262, 588.807 447.750 C 585.906 457.238, 583.299 465, 583.011 465 C 582.724 465, 581.541 461.738, 580.382 457.750 C 579.223 453.762, 571.803 430.137, 563.893 405.250 L 549.510 360 531.148 360 C 514.065 360, 512.834 360.122, 513.473 361.750 M 72.971 390.250 C 72.875 391.062, 72.856 415.803, 72.923 452.250 L 73 494 95.290 494 C 119.421 494, 124.231 493.308, 134.828 488.309 C 138.020 486.804, 143.015 483.125, 146.251 479.896 C 167.660 458.535, 165.170 418.999, 141.272 400.850 C 129.761 392.108, 119.940 390.021, 90.250 390.008 C 80.763 390.003, 72.987 390.113, 72.971 390.250 M 248.399 391.403 C 248.126 392.113, 248.038 402.435, 248.202 414.340 L 248.500 435.986 277.068 435.993 C 307.654 436, 312.007 435.457, 319.088 430.751 C 328.302 424.628, 329.699 408.422, 321.790 399.414 C 314.852 391.512, 307.451 390.167, 270.697 390.133 C 253.798 390.117, 248.783 390.403, 248.399 391.403 M 740 509.500 L 740 525 755 525 L 770 525 770 509.500 L 770 494 755 494 L 740 494 740 509.500 M 411.381 557.267 C 407.465 563.445, 398.282 577.950, 390.973 589.500 C 379.168 608.157, 355.499 645.239, 330.018 685 C 325.260 692.425, 321.032 699.063, 320.624 699.750 C 320.039 700.736, 324.913 700.999, 343.691 700.995 L 367.500 700.989 392.337 662.245 C 405.998 640.935, 422.423 615.386, 428.837 605.469 C 435.252 595.552, 445.675 579.382, 452 569.536 C 458.325 559.690, 464.332 550.366, 465.348 548.817 L 467.196 546 442.848 546.017 L 418.500 546.034 411.381 557.267 M 544 623.569 L 544 701.138 585.250 700.732 C 624.300 700.348, 626.927 700.206, 634.500 698.078 C 663.544 689.916, 685.165 666.770, 690.059 638.598 C 691.812 628.511, 690.777 609.289, 688.008 600.500 C 680.209 575.745, 662.468 558.257, 636.830 550.052 C 626.143 546.633, 617.835 546.040, 580.250 546.020 L 544 546 544 623.569 M 711 623.500 L 711 701 766.500 701 L 822 701 822 686 L 822 671 783 671 L 744 671 744 654 L 744 637 779 637 L 814 637 814 622.500 L 814 608 779 608 L 744 608 744 592 L 744 576 782.500 576 L 821 576 821 561 L 821 546 766 546 L 711 546 711 623.500 M 832.487 547.727 C 833.806 550.980, 859.025 620.247, 865.536 638.500 C 869.067 648.400, 875.513 666.400, 879.861 678.500 L 887.765 700.500 907.284 700.771 L 926.802 701.042 928.808 695.271 C 931.097 688.683, 959.593 609.183, 972.276 574 C 976.935 561.075, 981.063 549.477, 981.448 548.227 L 982.149 545.954 963.940 546.227 L 945.730 546.500 926.690 603.242 C 916.218 634.450, 907.510 659.843, 907.338 659.671 C 907.166 659.499, 901.354 642.740, 894.424 622.429 C 887.494 602.118, 878.777 576.725, 875.053 566 L 868.283 546.500 850.026 546.227 C 832.885 545.971, 831.812 546.062, 832.487 547.727 M 576.068 620.250 C 576.127 644.587, 576.412 665.962, 576.701 667.750 L 577.227 671 595.954 671 C 617.287 671, 625.611 669.511, 635.050 664.005 C 651.072 654.659, 658.743 639.896, 657.751 620.317 C 657.349 612.390, 656.793 610.097, 653.685 603.551 C 649.252 594.217, 642.014 586.352, 633.855 582.003 C 623.903 576.699, 619.726 576.025, 596.731 576.012 L 575.961 576 576.068 620.250 M 489 685 L 489 701 504.500 701 L 520 701 520 685 L 520 669 504.500 669 L 489 669 489 685" stroke="none" fill="#000000" fill-rule="evenodd"/>
</svg>